<?xml version="1.0" encoding="utf-8"?>
<!-- Generator: Adobe Illustrator 23.0.1, SVG Export Plug-In . SVG Version: 6.00 Build 0)  -->
<svg version="1.1" id="Capa_1" xmlns="http://www.w3.org/2000/svg" xmlns:xlink="http://www.w3.org/1999/xlink" x="0px" y="0px"
	 viewBox="0 0 15 15" style="enable-background:new 0 0 15 15;" xml:space="preserve">
<style type="text/css">
	.st0{fill:#888888;}
</style>
<g>
	<path class="st0" d="M9.1,2.4v2.7H8.9C8.8,4.5,8.6,4,8.4,3.8C8.3,3.5,8,3.3,7.7,3.1C7.5,3,7.2,3,6.7,3H6v7.6c0,0.5,0,0.8,0.1,0.9
		c0.1,0.1,0.2,0.2,0.3,0.3c0.2,0.1,0.4,0.1,0.7,0.1h0.3v0.3H2.3v-0.3h0.3c0.3,0,0.5-0.1,0.7-0.2c0.1-0.1,0.2-0.2,0.3-0.3
		s0.1-0.4,0.1-0.9V3H2.9C2.2,3,1.8,3.1,1.5,3.4c-0.4,0.4-0.7,1-0.8,1.7H0.4V2.4H9.1z"/>
	<path class="st0" d="M12.9,3v2.5h1.6v0.7h-1.6v4.2c0,0.4,0,0.6,0.1,0.8s0.1,0.2,0.2,0.3s0.2,0.1,0.3,0.1c0.3,0,0.6-0.2,0.9-0.7
		l0.2,0.2c-0.4,0.9-1,1.4-1.9,1.4c-0.4,0-0.8-0.1-1.1-0.4c-0.3-0.2-0.5-0.5-0.6-0.8c0-0.2-0.1-0.6-0.1-1.3V6.3H10V6
		c0.6-0.4,1.1-0.9,1.6-1.4c0.4-0.5,0.8-1,1.1-1.6H12.9z"/>
</g>
</svg>
